<svg xmlns="http://www.w3.org/2000/svg" xmlns:xlink="http://www.w3.org/1999/xlink" width="840" height="342.23"><rect width="840" height="342.23" rx="5" ry="5" class="a"/><svg y="0%" x="0%"><circle cx="20" cy="20" r="6" fill="#ff5f58"/><circle cx="40" cy="20" r="6" fill="#ffbd2e"/><circle cx="60" cy="20" r="6" fill="#18c132"/></svg><svg height="282.23" viewBox="0 0 80 28.223" width="800" x="15" xmlns="http://www.w3.org/2000/svg" xmlns:xlink="http://www.w3.org/1999/xlink" y="50"><style>.a{fill:#282d35}.i,.j{fill:#a8cc8c;white-space:pre}.j{fill:#b9c0cb}</style><g font-family="Monaco,Consolas,Menlo,'Bitstream Vera Sans Mono','Powerline Symbols',monospace" font-size="1.67"><defs><symbol id="a"><path fill="transparent" d="M0 0h80v14H0z"/></symbol></defs><path class="a" d="M0 0h80v28.223H0z"/><svg width="80"><svg><use xlink:href="#a"/><text y="1.67" style="white-space:pre" fill="#d290e4">scffld</text><text x="7.014" y="1.67" style="white-space:pre" fill="#6f7783" font-weight="700">v1.8.0</text><text y="6.012" class="i">✔</text><text x="2.004" y="6.012" class="j">Fetching</text><text x="11.022" y="6.012" class="j">template</text><text x="20.04" y="6.012" class="j">github:scffld-dev/cli/examples/simple...</text><text y="10.354" class="i">✔</text><text x="2.004" y="10.354" class="j">Scaffolding</text><text x="14.028" y="10.354" class="j">template</text><text x="23.046" y="10.354" class="j">github:scffld-dev/cli/examples/simple...</text><text y="14.696" class="j">Wrote</text><text x="6.012" y="14.696" class="j">3</text><text x="8.016" y="14.696" class="j">files</text><text x="14.028" y="14.696" class="j">in</text><text x="17.034" y="14.696" class="j">101ms</text><text y="19.038" class="j">/Users/lindsayevans/Projects/scffld-dev/cli/demo-src/simple/</text><text x="1.002" y="21.209" class="j">simple.css</text><text x="1.002" y="23.38" class="j">MyAwesomeComponent/my-awesome-component.css</text><text x="1.002" y="25.551" class="j">MyAwesomeComponent/my-awesome-component.html</text></svg></svg></g></svg></svg>